<?xml version="1.0" encoding="UTF-8" standalone="no"?>
<!-- Created with Inkscape (http://www.inkscape.org/) -->

<svg
   width="374.34351mm"
   height="203.08838mm"
   viewBox="0 0 374.3435 203.08838"
   version="1.1"
   id="svg1"
   xml:space="preserve"
   xmlns:inkscape="http://www.inkscape.org/namespaces/inkscape"
   xmlns:sodipodi="http://sodipodi.sourceforge.net/DTD/sodipodi-0.dtd"
   xmlns="http://www.w3.org/2000/svg"
   xmlns:svg="http://www.w3.org/2000/svg"><sodipodi:namedview
     id="namedview1"
     pagecolor="#ffffff"
     bordercolor="#000000"
     borderopacity="0.25"
     inkscape:showpageshadow="2"
     inkscape:pageopacity="0.0"
     inkscape:pagecheckerboard="0"
     inkscape:deskcolor="#d1d1d1"
     inkscape:document-units="mm" /><defs
     id="defs1" /><g
     inkscape:label="Camada 1"
     inkscape:groupmode="layer"
     id="layer1"
     transform="translate(-41.093981,-46.95581)"><g
       id="g1"
       transform="matrix(0.20670573,0,0,0.20670573,-1.6114228,42.656331)"><path
         d="m 605.6,879.6 c 0,92.2 -40.4,117.7 -90.2,117.7 -49.8,0 -90.2,-25.5 -90.2,-117.7 0,-92.2 40.4,-216.1 90.2,-216.1 49.8,0 90.2,124 90.2,216.1 z"
         fill="#f4d967"
         id="path1" /><path
         d="m 515.4,1003.3 c -29.4,0 -52.3,-8.8 -68.2,-26.2 -18.6,-20.4 -28,-53.2 -28,-97.4 0,-46.9 10,-101 26.8,-144.7 19.1,-49.8 43.8,-77.3 69.3,-77.3 25.6,0 50.2,27.5 69.3,77.3 16.8,43.7 26.8,97.8 26.8,144.7 0,44.3 -9.4,77.1 -28,97.4 -15.7,17.4 -38.6,26.2 -68,26.2 z m 0,-333.8 c -20,0 -41.2,25.4 -58.2,69.6 -16,41.8 -26,95.6 -26,140.5 0,41.2 8.4,71.3 24.9,89.4 13.7,15 33.1,22.3 59.3,22.3 26.2,0 45.6,-7.3 59.3,-22.3 16.5,-18.1 24.9,-48.2 24.9,-89.4 0,-44.9 -10,-98.7 -26,-140.5 -17,-44.2 -38.2,-69.6 -58.2,-69.6 z"
         fill="#49332e"
         id="path2" /><path
         d="M 680.5,766.4 H 350.3 c -76.1,0 -137.8,-61.7 -137.8,-137.8 v -299 c 0,-167.3 135.6,-302.9 302.9,-302.9 167.3,0 302.9,135.6 302.9,302.9 v 299 c 0,76.1 -61.7,137.8 -137.8,137.8 z"
         fill="#b2806f"
         id="path3" /><path
         d="M 678.2,772.3 H 352.7 c -80.5,0 -146.1,-65.5 -146.1,-146.1 V 329.6 c 0,-170.3 138.5,-308.8 308.8,-308.8 170.3,0 308.8,138.5 308.8,308.8 v 296.7 c 0,80.5 -65.5,146 -146,146 z M 515.4,32.7 c -163.7,0 -296.9,133.2 -296.9,296.9 v 296.7 c 0,74 60.2,134.2 134.2,134.2 h 325.5 c 74,0 134.2,-60.2 134.2,-134.2 V 329.6 C 812.3,165.8 679.1,32.7 515.4,32.7 Z"
         fill="#49332e"
         id="path4" /><path
         d="M 678.2,772.3 H 352.7 c -80.5,0 -146.1,-65.5 -146.1,-146.1 V 329.6 c 0,-170.3 138.5,-308.8 308.8,-308.8 170.3,0 308.8,138.5 308.8,308.8 v 296.7 c 0,80.5 -65.5,146 -146,146 z M 515.4,32.7 c -163.7,0 -296.9,133.2 -296.9,296.9 v 296.7 c 0,74 60.2,134.2 134.2,134.2 h 325.5 c 74,0 134.2,-60.2 134.2,-134.2 V 329.6 C 812.3,165.8 679.1,32.7 515.4,32.7 Z"
         fill="#49332e"
         id="path5" /><path
         d="m 510.4,31.7 c -68,0 -130.9,22.4 -181.4,60.3 -31.5,47.8 -49.8,105 -49.8,166.5 v 296.7 c 0,77.4 62.7,140.1 140.1,140.1 h 325.5 c 21.1,0 41,-4.7 59,-13 6.2,-15.8 9.6,-33.1 9.6,-51.1 V 334.5 C 813.3,167.3 677.7,31.7 510.4,31.7 Z"
         fill="#d89479"
         id="path6" /><path
         d="M 678.2,772.3 H 352.7 c -80.5,0 -146.1,-65.5 -146.1,-146.1 V 329.6 c 0,-170.3 138.5,-308.8 308.8,-308.8 170.3,0 308.8,138.5 308.8,308.8 v 296.7 c 0,80.5 -65.5,146 -146,146 z M 515.4,32.7 c -163.7,0 -296.9,133.2 -296.9,296.9 v 296.7 c 0,74 60.2,134.2 134.2,134.2 h 325.5 c 74,0 134.2,-60.2 134.2,-134.2 V 329.6 C 812.3,165.8 679.1,32.7 515.4,32.7 Z"
         fill="#49332e"
         id="path7" /><path
         d="m 423.4,379.2 c -2.5,0 -4.5,-2 -4.5,-4.5 0,-22.5 -18.1,-40.7 -40.3,-40.7 -22.2,0 -40.3,18.3 -40.3,40.7 0,2.5 -2,4.5 -4.5,4.5 -2.5,0 -4.5,-2 -4.5,-4.5 0,-27.4 22.1,-49.7 49.3,-49.7 27.2,0 49.3,22.3 49.3,49.7 -0.1,2.5 -2.1,4.5 -4.5,4.5 z"
         fill="#49332e"
         id="path8" /><path
         d="m 332.6,379.2 c -0.2,0 -0.5,0 -0.7,-0.1 -15.5,-2.5 -28.3,-11.5 -34.1,-24 -1,-2.2 -0.1,-4.9 2.2,-5.9 2.2,-1 4.9,-0.1 5.9,2.2 4.5,9.7 15,17 27.4,19 2.4,0.4 4.1,2.7 3.7,5.1 -0.3,2.1 -2.2,3.7 -4.4,3.7 z m 5.7,-19.6 c -0.2,0 -0.5,0 -0.7,-0.1 -13.9,-2.3 -25.3,-10.3 -30.6,-21.6 -1,-2.2 -0.1,-4.9 2.2,-5.9 2.2,-1 4.9,-0.1 5.9,2.2 3.9,8.4 13,14.7 23.9,16.5 2.4,0.4 4.1,2.7 3.7,5.1 -0.4,2.2 -2.3,3.8 -4.4,3.8 z"
         fill="#49332e"
         id="path9" /><path
         d="m 697.1,379.2 c -2.5,0 -4.5,-2 -4.5,-4.5 0,-22.5 -18.1,-40.7 -40.3,-40.7 -22.2,0 -40.3,18.3 -40.3,40.7 0,2.5 -2,4.5 -4.5,4.5 -2.5,0 -4.5,-2 -4.5,-4.5 0,-27.4 22.1,-49.7 49.3,-49.7 27.2,0 49.3,22.3 49.3,49.7 -0.1,2.5 -2.1,4.5 -4.5,4.5 z"
         fill="#49332e"
         id="path10" /><path
         d="m 698.2,379.2 c -2.2,0 -4,-1.6 -4.4,-3.8 -0.4,-2.4 1.3,-4.7 3.7,-5.1 12.4,-2 22.9,-9.3 27.4,-19 1,-2.2 3.7,-3.2 5.9,-2.2 2.2,1 3.2,3.7 2.2,5.9 -5.8,12.5 -18.6,21.5 -34.1,24 -0.2,0.2 -0.5,0.2 -0.7,0.2 z m -5.6,-19.6 c -2.2,0 -4,-1.6 -4.4,-3.8 -0.4,-2.4 1.3,-4.7 3.7,-5.1 10.8,-1.8 20,-8.1 23.9,-16.5 1,-2.2 3.7,-3.2 5.9,-2.2 2.2,1 3.2,3.7 2.2,5.9 -5.2,11.2 -16.6,19.3 -30.6,21.6 -0.2,0.1 -0.5,0.1 -0.7,0.1 z"
         fill="#49332e"
         id="path11" /><path
         d="m 339.3,421.1 a 42.6,26.1 0 1 0 85.2,0 42.6,26.1 0 1 0 -85.2,0 z"
         fill="#dd5e54"
         id="path12" /><path
         d="m 606.3,421.1 a 42.6,26.1 0 1 0 85.2,0 42.6,26.1 0 1 0 -85.2,0 z"
         fill="#dd5e54"
         id="path13" /><path
         d="m 457.2,429 c -1.4,8.4 -2.2,17.3 -2.2,26.5 0,54.6 27.1,95.8 60.5,95.8 33.4,0 60.5,-41.2 60.5,-95.8 0,-9.2 -0.8,-18.1 -2.2,-26.5 z"
         fill="#ce1b1b"
         id="path14" /><path
         d="m 515.4,555.8 c -36.4,0 -64.9,-44 -64.9,-100.3 0,-9.2 0.8,-18.4 2.3,-27.3 0.4,-2.1 2.2,-3.7 4.4,-3.7 h 116.5 c 2.2,0 4,1.6 4.4,3.7 1.5,8.9 2.3,18.1 2.3,27.3 -0.1,56.2 -28.6,100.3 -65,100.3 z M 461,433.5 c -1,7.2 -1.6,14.6 -1.6,22 0,51.2 24.6,91.3 56,91.3 31.4,0 56,-40.1 56,-91.3 0,-7.4 -0.5,-14.8 -1.6,-22 H 461 Z"
         fill="#49332e"
         id="path15" /><path
         d="m 575.8,465.3 c 0.1,-2.1 0.1,-4.3 0.1,-6.4 0,-10.3 -0.8,-20.3 -2.2,-29.8 H 457.2 c -1.4,9.5 -2.2,19.5 -2.2,29.8 0,2.2 0,4.3 0.1,6.4 z"
         fill="#ffffff"
         id="path16" /><path
         d="M 575.8,469.7 H 455.1 c -2.4,0 -4.4,-1.9 -4.5,-4.3 -0.1,-2.4 -0.1,-4.5 -0.1,-6.6 0,-10.3 0.8,-20.5 2.3,-30.5 0.3,-2.2 2.2,-3.8 4.4,-3.8 h 116.5 c 2.2,0 4.1,1.6 4.4,3.8 1.5,10 2.3,20.2 2.3,30.5 0,2.1 0,4.2 -0.1,6.6 -0.1,2.4 -2.1,4.3 -4.5,4.3 z m -116.4,-8.9 h 111.9 v -2 c 0,-8.5 -0.5,-17 -1.6,-25.4 H 461.1 c -1.1,8.3 -1.6,16.8 -1.6,25.4 -0.1,0.7 -0.1,1.3 -0.1,2 z"
         fill="#49332e"
         id="path17" /><path
         d="m 515.4,515.7 c -7.3,0 -14.1,-11.3 -22,-10.6 -10.3,1 -15.8,11.2 -20.9,20 11,18 26.1,26.2 42.9,26.2 16.8,0 31.9,-8.2 42.9,-26.2 -5.5,-9.3 -12,-20.7 -22.7,-20.7 -8.4,0 -13.6,11.3 -20.2,11.3 z"
         fill="#d66161"
         id="path18" /><path
         d="m 515.4,555.8 c -19.3,0 -35.4,-9.8 -46.7,-28.4 -0.9,-1.4 -0.9,-3.2 0,-4.6 l 0.8,-1.3 c 5.1,-8.8 11.5,-19.7 23.6,-20.8 5.9,-0.6 10.7,3.1 14.9,6.3 2.7,2.1 5.6,4.2 7.5,4.2 1.4,0 3.8,-2.1 5.9,-4 3.6,-3.3 8.2,-7.3 14.3,-7.3 13,0 20.4,12.4 26.2,22.4 l 0.3,0.5 c 0.8,1.4 0.8,3.2 0,4.6 -11.3,18.6 -27.5,28.4 -46.8,28.4 z M 477.8,525 c 9.5,14.3 22.4,21.8 37.7,21.8 15.2,0 28.2,-7.5 37.7,-21.8 -4.7,-7.9 -10.1,-16.2 -17.4,-16.2 -2.8,0 -5.5,2.4 -8.4,5 -3.3,2.9 -7,6.3 -11.8,6.3 -5,0 -9.2,-3.2 -12.9,-6.1 -3.1,-2.3 -6.2,-4.7 -8.6,-4.5 -7.4,0.8 -12,8.1 -16.3,15.5 z"
         fill="#49332e"
         id="path19" /><path
         d="m 494.8,63.2 c -40.5,0 -79.2,8 -114.6,22.4 5.2,-0.2 10.4,-0.3 15.6,-0.3 221.9,0 401.8,179.9 401.8,401.8 v -121 C 797.7,198.8 662.1,63.2 494.8,63.2 Z"
         fill="#efdbce"
         id="path20" /></g><text
       xml:space="preserve"
       style="font-style:normal;font-variant:normal;font-weight:normal;font-stretch:normal;font-size:70.5556px;font-family:'Century Gothic';-inkscape-font-specification:'Century Gothic, Normal';font-variant-ligatures:normal;font-variant-caps:normal;font-variant-numeric:normal;font-variant-east-asian:normal;fill:#000000;stroke-width:53.132;stroke-dasharray:none"
       x="169.52641"
       y="171.94807"
       id="text4"><tspan
         sodipodi:role="line"
         id="tspan4"
         style="font-style:normal;font-variant:normal;font-weight:normal;font-stretch:normal;font-size:70.5556px;font-family:'Century Gothic';-inkscape-font-specification:'Century Gothic, Normal';font-variant-ligatures:normal;font-variant-caps:normal;font-variant-numeric:normal;font-variant-east-asian:normal;fill:#d4103e;fill-opacity:1;stroke-width:53.132"
         x="169.52641"
         y="171.94807">sorvete</tspan></text></g></svg>
