<?xml version="1.0" encoding="UTF-8" standalone="no"?>
<!-- Created with Inkscape (http://www.inkscape.org/) -->

<svg
   width="161.31067mm"
   height="102.2288mm"
   viewBox="0 0 161.31067 102.22879"
   version="1.1"
   id="svg1"
   xml:space="preserve"
   inkscape:export-filename="bitmap.svg"
   inkscape:export-xdpi="96"
   inkscape:export-ydpi="96"
   xmlns:inkscape="http://www.inkscape.org/namespaces/inkscape"
   xmlns:sodipodi="http://sodipodi.sourceforge.net/DTD/sodipodi-0.dtd"
   xmlns="http://www.w3.org/2000/svg"
   xmlns:svg="http://www.w3.org/2000/svg"><sodipodi:namedview
     id="namedview1"
     pagecolor="#ffffff"
     bordercolor="#000000"
     borderopacity="0.25"
     inkscape:showpageshadow="2"
     inkscape:pageopacity="0.0"
     inkscape:pagecheckerboard="0"
     inkscape:deskcolor="#d1d1d1"
     inkscape:document-units="mm" /><defs
     id="defs1" /><g
     inkscape:label="Camada 1"
     inkscape:groupmode="layer"
     id="layer1"
     transform="translate(-29.555256,-52.413771)"><g
       id="g1"
       transform="matrix(0.41341146,0,0,0.41341146,3.48677,52.413771)"><path
         style="fill:#407c46"
         d="M 171.562,70.454 C 158.84,62.696 151.237,48.595 151.724,33.653 c 0.13,-3.986 2.341,-7.613 5.826,-9.555 13.059,-7.269 29.076,-6.969 41.798,0.79 12.723,7.758 20.326,21.86 19.839,36.802 -0.131,3.984 -2.341,7.61 -5.824,9.55 -13.062,7.277 -29.081,6.975 -41.801,-0.786 z"
         id="path1" /><path
         style="fill:#316635"
         d="m 228.637,82.093 c -1.434,0 -2.887,-0.382 -4.2,-1.184 L 181.73,54.868 c -3.812,-2.325 -5.018,-7.299 -2.693,-11.11 2.325,-3.811 7.298,-5.019 11.111,-2.694 l 42.706,26.042 c 3.812,2.325 5.018,7.299 2.693,11.111 -1.524,2.497 -4.184,3.876 -6.91,3.876 z"
         id="path2" /><path
         style="fill:#ef645e"
         d="m 223.144,73.585 c -3.641,0 -6.832,-2.395 -7.788,-5.847 -1.44,-5.2 -2.169,-10.66 -2.169,-16.229 C 213.186,23.106 232.394,0 256.002,0 c 23.608,0 42.815,23.106 42.815,51.508 0,5.567 -0.728,11.027 -2.168,16.227 -0.955,3.453 -4.146,5.849 -7.788,5.849 h -65.717 z"
         id="path3" /><g
         id="g6">&#10;	<path
   style="fill:#c14616"
   d="m 254.923,28.025 h -1.077 c -4.464,0 -8.083,-3.62 -8.083,-8.084 0,-4.464 3.62,-8.083 8.083,-8.083 h 1.077 c 4.466,0 8.084,3.618 8.084,8.083 10e-4,4.465 -3.618,8.084 -8.084,8.084 z"
   id="path4" />&#10;	<path
   style="fill:#c14616"
   d="m 275.942,44.194 h -1.077 c -4.465,0 -8.084,-3.62 -8.084,-8.084 0,-4.464 3.62,-8.083 8.084,-8.083 h 1.077 c 4.465,0 8.084,3.618 8.084,8.083 0,4.465 -3.619,8.084 -8.084,8.084 z"
   id="path5" />&#10;	<path
   style="fill:#c14616"
   d="m 237.138,44.194 h -1.077 c -4.465,0 -8.084,-3.62 -8.084,-8.084 0,-4.464 3.62,-8.083 8.084,-8.083 h 1.077 c 4.464,0 8.083,3.618 8.083,8.083 0.001,4.464 -3.618,8.084 -8.083,8.084 z"
   id="path6" />&#10;</g><ellipse
         style="fill:#a5bc79"
         cx="256.00201"
         cy="152.168"
         rx="96.841003"
         ry="95.107002"
         id="ellipse6" /><path
         style="opacity:0.1;enable-background:new"
         d="m 192.742,152.172 c 0,-46.901 34.569,-85.871 80.051,-93.678 -5.455,-0.936 -11.064,-1.428 -16.792,-1.428 -53.486,0 -96.842,42.583 -96.842,95.107 0,52.526 43.356,95.108 96.842,95.108 5.727,0 11.337,-0.491 16.792,-1.427 -45.481,-7.812 -80.051,-46.781 -80.051,-93.682 z"
         id="path7" /><ellipse
         style="fill:#a67c52"
         cx="325.40399"
         cy="218.74899"
         rx="96.841003"
         ry="95.107002"
         id="ellipse7" /><path
         style="opacity:0.1;enable-background:new"
         d="m 273.583,218.747 c 0,-44.914 31.706,-82.551 74.333,-92.518 -7.223,-1.689 -14.759,-2.589 -22.51,-2.589 -53.484,0 -96.843,42.582 -96.843,95.108 0,52.526 43.359,95.107 96.843,95.107 7.751,0 15.287,-0.9 22.51,-2.589 -42.627,-9.968 -74.333,-47.605 -74.333,-92.519 z"
         id="path8" /><circle
         style="fill:#ffe060"
         cx="102.945"
         cy="174.08"
         r="30.181"
         id="circle8" /><ellipse
         style="fill:#f9ebcf"
         cx="186.60001"
         cy="218.74899"
         rx="96.841003"
         ry="95.107002"
         id="ellipse8" /><path
         style="opacity:0.1;enable-background:new"
         d="m 123.42,218.747 c 0,-46.887 34.55,-85.847 80.011,-93.672 -5.467,-0.94 -11.092,-1.435 -16.832,-1.435 -53.486,0 -96.844,42.582 -96.844,95.108 0,52.526 43.358,95.107 96.844,95.107 5.741,0 11.365,-0.494 16.832,-1.435 -45.461,-7.826 -80.011,-46.786 -80.011,-93.673 z"
         id="path9" /><path
         style="fill:#a67c52"
         d="m 149.289,155.216 h -9.701 c -4.465,0 -8.083,3.62 -8.083,8.084 0,4.464 3.62,8.084 8.083,8.084 h 9.701 c 4.465,0 8.084,-3.62 8.084,-8.084 0,-4.464 -3.618,-8.084 -8.084,-8.084 z"
         id="path10" /><path
         style="fill:#754c24"
         d="m 180.549,137.97 h -9.701 c -4.465,0 -8.083,3.62 -8.083,8.084 0,4.464 3.62,8.083 8.083,8.083 h 9.701 c 4.465,0 8.084,-3.618 8.084,-8.083 0,-4.464 -3.619,-8.084 -8.084,-8.084 z"
         id="path11" /><path
         style="fill:#a67c52"
         d="m 211.808,158.451 h -9.701 c -4.465,0 -8.084,3.618 -8.084,8.083 0,4.465 3.621,8.084 8.084,8.084 h 9.701 c 4.464,0 8.084,-3.62 8.084,-8.084 0,-4.465 -3.619,-8.083 -8.084,-8.083 z"
         id="path12" /><path
         style="fill:#8c6239"
         d="M 246.301,177.853 H 236.6 c -4.465,0 -8.084,3.618 -8.084,8.083 0,4.465 3.62,8.084 8.084,8.084 h 9.701 c 4.465,0 8.083,-3.62 8.083,-8.084 0,-4.464 -3.619,-8.083 -8.083,-8.083 z"
         id="path13" /><path
         style="fill:#754c24"
         d="m 178.394,177.853 h -9.701 c -4.465,0 -8.084,3.618 -8.084,8.083 0,4.465 3.62,8.084 8.084,8.084 h 9.701 c 4.464,0 8.083,-3.62 8.083,-8.084 0,-4.464 -3.619,-8.083 -8.083,-8.083 z"
         id="path14" /><circle
         style="fill:#ef645e"
         cx="93.237999"
         cy="211.811"
         r="30.181"
         id="circle14" /><circle
         style="fill:#ef645e"
         cx="423.07001"
         cy="207.496"
         r="30.181"
         id="circle18" /></g></g></svg>
